<svg id="svgexport-17_7_" data-name="svgexport-17 (7)" xmlns="http://www.w3.org/2000/svg" width="1225.966" height="1177.377" viewBox="0 0 1225.966 1177.377">
  <path id="Path_2145" data-name="Path 2145" d="M576.442,552.667l-36.9-107.61a24.969,24.969,0,0,0-5.428-8.926,49.911,49.911,0,0,1-47.169,46.431q-9.208.468-18.431.478h-.563a329.869,329.869,0,0,1-48.3-3.514,24.872,24.872,0,0,0,33.7,23.923v-.01l47.378-17.908,112.43,327.885A173.388,173.388,0,0,1,887.19,837.5c18.631-.906,23.406-11.821-6.548-50.851-48.3-62.933-115.475-75.134-162.724-74.5-2.966-7.994-6.031-16.348-9.225-25.179-28.952-80.054-93.979-118.182-132.251-134.3ZM350.526,58.928c0,.334.01.678.04,1.062,1.276,24.113,6.763,40.909,6.843,57.571a52.765,52.765,0,0,1-6.315,25.847,5.034,5.034,0,0,1-2.048,2.033c-13.716,7.337-28.454,9.639-43.446,9.639-13.1-.01-26.47-1.72-39.967-3.484A162.693,162.693,0,0,1,232,143.836a112.1,112.1,0,0,0,188.7-119.2C400.62,27.1,373.6,32.1,359.96,42.63c-6.225,4.78-9.38,9.8-9.435,16.3ZM172.486,293.716l-.03-.07-.214-.459a49.837,49.837,0,1,1,90.729-41.268l.244.493c.369.753.982,1.964,1.839,3.564q4.063,7.584,8.727,14.823a276.838,276.838,0,0,0,20.594,28.04c8.986-47.1-9.953-99.058-49.477-108.9-42.549-10.611-104.226,12.5-129.321,85.471-33.916,100.553-41.208,166-28.319,276.719,12.465,64.145,50.109,82.262,88.038,86.657.169.03.329.08.5.1l189,29.386,70.8,179.455A62.3,62.3,0,1,0,551.5,802.013L467.6,589.354a62.455,62.455,0,0,0-48.38-38.7L262.627,526.3c-.812-36.747,3.235-74.805,9.021-111.064a343.051,343.051,0,0,1-30.412-26.984c-42.075-41.891-63.252-82.944-68.75-94.532Z" transform="translate(323.824 98.159)" fill="#4097ff"/>
  <path id="Path_2146" data-name="Path 2146" d="M791.784,306.769h.563q8.889,0,17.918-.469a39.869,39.869,0,1,0-4.047-79.636q-7.154.375-13.87.365c-76.39-.164-128.284-33.647-164.07-68.765a286.157,286.157,0,0,1-39.055-48.385q-4.863-7.572-9.136-15.5-1.043-1.939-2.008-3.917l-.354-.713h.005a39.871,39.871,0,0,0-72.588,33.014c1.326,2.746,21.382,46.76,66.985,92.13,45.111,45.111,118.5,91.871,219.656,91.876Zm-423.8,135.8V132.208a26.6,26.6,0,0,0-26.595-26.6H26.595A26.6,26.6,0,0,0,0,132.213V442.569a26.6,26.6,0,0,0,26.6,26.6H341.387A26.6,26.6,0,0,0,367.981,442.564Zm99.252,274.142a148.485,148.485,0,1,0-92.942,188.307A148.483,148.483,0,0,0,467.233,716.706ZM345.444,819.94a58.661,58.661,0,1,1,36.717-74.392,58.664,58.664,0,0,1-36.717,74.392ZM987.666,378c41.971,0,41.971-152.013,0-152.013a76.007,76.007,0,1,0,0,152.013Z" transform="translate(0 264.462)" fill="#4097ff"/>
  <path id="Path_2147" data-name="Path 2147" d="M836.866,1002.768H519.089c-27.472-55.427-36.922-112.011-40.052-148.818a19.872,19.872,0,0,0,14.13-18.979V780.146a19.936,19.936,0,0,0-19.936-19.936H67.032A19.936,19.936,0,0,0,47.1,780.146v54.824a19.936,19.936,0,0,0,19.936,19.936h2.2c-21.651,53.125-55.064,145.215-55.064,207.67H100.1a173.381,173.381,0,1,1,340.076,0h398.1a171.408,171.408,0,0,1-1.411-59.808Zm123.8-114.548a148.488,148.488,0,1,0,188.3,92.947,148.485,148.485,0,0,0-188.3-92.947Zm66.517,196.182a58.661,58.661,0,1,1,36.717-74.392A58.664,58.664,0,0,1,1027.181,1084.4ZM700.5,111.483A129.731,129.731,0,0,0,588.97,1.1,130.259,130.259,0,0,0,572.014,0h-.02A129.67,129.67,0,0,0,444.6,152.4c4.919,27.617,13.233,47.448,27.008,61.3s33.488,22.338,62.7,26.176c13.467,1.764,26.465,3.4,38.671,3.389,13.487,0,25.932-1.969,37.39-7.745a42.563,42.563,0,0,0,4.451-19.8c.08-14.254-5.408-31.7-6.823-57q-.053-.814-.06-1.63c-.04-10.262,5.652-18.506,13.4-24.252,7.785-5.851,17.828-9.868,28.414-12.9,18.3-5.2,38.427-7.317,50.737-8.458Z" transform="translate(56.438 0)" fill="#4097ff"/>
</svg>
