<svg id="svgexport-17_7_" data-name="svgexport-17 (7)" xmlns="http://www.w3.org/2000/svg" width="1063.356" height="1021.211" viewBox="0 0 1063.356 1021.211">
  <path id="Path_2145" data-name="Path 2145" d="M510.764,482.63l-32-93.337a21.657,21.657,0,0,0-4.708-7.742,43.291,43.291,0,0,1-40.913,40.273q-7.987.405-15.986.415h-.488a286.116,286.116,0,0,1-41.894-3.048A21.573,21.573,0,0,0,404,439.941v-.009L445.094,424.4l97.517,284.395A150.39,150.39,0,0,1,780.3,729.686c16.16-.786,20.3-10.253-5.679-44.106-41.89-54.586-100.159-65.169-141.14-64.62-2.572-6.934-5.231-14.179-8-21.84-25.112-69.435-81.514-102.506-114.71-116.491ZM314.813,54.38c0,.29.009.588.035.921,1.107,20.914,5.866,35.483,5.935,49.935a45.766,45.766,0,0,1-5.477,22.419,4.366,4.366,0,0,1-1.777,1.764c-11.9,6.363-24.68,8.361-37.683,8.361-11.361-.009-22.959-1.491-34.666-3.022a141.113,141.113,0,0,1-29.171-6.731A97.231,97.231,0,0,0,375.676,24.638c-17.413,2.136-40.852,6.471-52.68,15.606-5.4,4.146-8.136,8.5-8.183,14.136ZM160.389,258.026l-.026-.06-.186-.4a43.227,43.227,0,1,1,78.7-35.794l.212.428c.32.653.852,1.7,1.6,3.091q3.524,6.578,7.57,12.857a240.115,240.115,0,0,0,17.862,24.321c7.794-40.856-8.633-85.919-42.914-94.457-36.905-9.2-90.4,10.842-112.168,74.135C81.611,329.364,75.287,386.128,86.466,482.163c10.812,55.637,43.463,71.351,76.361,75.163.147.026.285.069.432.091L327.19,582.905,388.6,738.558A54.036,54.036,0,1,0,489.132,698.9L416.36,514.451A54.171,54.171,0,0,0,374.4,480.883L238.574,459.757c-.7-31.873,2.806-64.883,7.825-96.333a297.545,297.545,0,0,1-26.379-23.4c-36.495-36.335-54.863-71.943-59.631-81.994Z" transform="translate(270.092 81.871)" fill="#b9b5b5"/>
  <path id="Path_2146" data-name="Path 2146" d="M686.763,274.884h.489q7.71,0,15.541-.406a34.581,34.581,0,1,0-3.51-69.073q-6.205.326-12.031.316c-66.258-.143-111.269-29.184-142.308-59.644a248.2,248.2,0,0,1-33.875-41.967q-4.218-6.568-7.924-13.445-.9-1.682-1.742-3.4l-.307-.618h0a34.583,34.583,0,0,0-62.96,28.635c1.15,2.382,18.546,40.558,58.1,79.91,39.127,39.127,102.783,79.685,190.522,79.689ZM319.173,392.667V123.477A23.072,23.072,0,0,0,296.106,100.4H23.067A23.076,23.076,0,0,0,0,123.481V392.672a23.068,23.068,0,0,0,23.072,23.072H296.106A23.067,23.067,0,0,0,319.173,392.667Zm86.087,237.78a128.791,128.791,0,1,0-80.615,163.33A128.788,128.788,0,0,0,405.26,630.448ZM299.624,719.989a50.881,50.881,0,1,1,31.847-64.524,50.883,50.883,0,0,1-31.847,64.524ZM856.664,336.668c36.4,0,36.4-131.85,0-131.85a65.925,65.925,0,1,0,0,131.85Z" transform="translate(0 220.579)" fill="#b9b5b5"/>
  <path id="Path_2147" data-name="Path 2147" d="M727.744,869.762H452.116c-23.828-48.076-32.024-97.154-34.739-129.079a17.236,17.236,0,0,0,12.256-16.462V676.669a17.292,17.292,0,0,0-17.292-17.292H60.02a17.292,17.292,0,0,0-17.292,17.292v47.553A17.292,17.292,0,0,0,60.02,741.513h1.906c-18.779,46.078-47.76,125.954-47.76,180.125H88.7a150.384,150.384,0,1,1,294.969,0h345.3a148.672,148.672,0,0,1-1.223-51.875Zm107.378-99.355a128.793,128.793,0,1,0,163.326,80.619,128.79,128.79,0,0,0-163.326-80.619Zm57.694,170.16a50.881,50.881,0,1,1,31.847-64.525A50.883,50.883,0,0,1,892.816,940.568ZM609.464,96.7A112.524,112.524,0,0,0,512.729.955,112.981,112.981,0,0,0,498.022,0H498A112.47,112.47,0,0,0,387.51,132.183c4.267,23.954,11.477,41.155,23.426,53.172s29.046,19.376,54.387,22.7c11.681,1.53,22.955,2.953,33.542,2.94,11.7,0,22.492-1.708,32.431-6.718a36.919,36.919,0,0,0,3.86-17.171c.069-12.364-4.69-27.5-5.918-49.442q-.046-.706-.052-1.414c-.035-8.9,4.9-16.051,11.624-21.036,6.753-5.075,15.463-8.559,24.645-11.188,15.874-4.513,33.33-6.346,44.008-7.336Z" transform="translate(47.073 0)" fill="#b9b5b5"/>
</svg>
